# xmcd CD database file
#
# Track frame offsets:
#	150
#	17125
#	37290
#	67557
#
# Disc length: 1270 seconds
#
# Revision: 0
# Processed by: cddbd v1.5.1PL0 Copyright (c) Steve Scherf et al.
# Submitted via: CDex 1.51
#
DISCID=2b04f404
DTITLE=Me'Shell Ndegéocello - Leviticus: Faggot
DYEAR=1996
DGENRE=Jazz
TTITLE0=Leviticus: Faggot (Radio Edit) ((Radio Edit))
TTITLE1=Leviticus: Faggot (The Glee Club FM Edit) ((The Glee Club FM Edit))
TTITLE2=Leviticus: Faggot (The Glee Club Vocal Mix) ((The Glee Club Vocal Mix))
TTITLE3=Leviticus: Faggot (LP Version) ((LP Version))
EXTD=YEAR: 1996
EXTT0=
EXTT1=
EXTT2=
EXTT3=
PLAYORDER=
